<mxfile host="app.diagrams.net" modified="2024-03-01T10:57:12.583Z" agent="Mozilla/5.0 (Windows NT 10.0; Win64; x64) AppleWebKit/537.36 (KHTML, like Gecko) Chrome/122.0.0.0 Safari/537.36 Edg/122.0.0.0" etag="W-G5Ya2rfb2vNFg2Zbf-" version="22.1.21" type="google">
  <diagram name="Page-1" id="KPJnUMIsRzKxLXKY3JyP">
    <mxGraphModel grid="1" page="1" gridSize="10" guides="1" tooltips="1" connect="1" arrows="1" fold="1" pageScale="1" pageWidth="850" pageHeight="1100" math="0" shadow="0">
      <root>
        <mxCell id="0" />
        <mxCell id="1" parent="0" />
        <mxCell id="o3LGDa2omn9L2sehLpxl-112" value="" style="verticalLabelPosition=bottom;html=1;verticalAlign=top;align=center;shape=mxgraph.floorplan.stairsRest;" vertex="1" parent="1">
          <mxGeometry x="993" y="88" width="280" height="280" as="geometry" />
        </mxCell>
        <mxCell id="o3LGDa2omn9L2sehLpxl-3" value="" style="verticalLabelPosition=bottom;html=1;verticalAlign=top;align=center;shape=mxgraph.floorplan.wall;fillColor=strokeColor;" vertex="1" parent="1">
          <mxGeometry x="51" y="226" width="260" height="10" as="geometry" />
        </mxCell>
        <mxCell id="o3LGDa2omn9L2sehLpxl-4" value="" style="verticalLabelPosition=bottom;html=1;verticalAlign=top;align=center;shape=mxgraph.floorplan.wall;fillColor=strokeColor;direction=west;" vertex="1" parent="1">
          <mxGeometry x="311" y="79" width="720" height="10" as="geometry" />
        </mxCell>
        <mxCell id="o3LGDa2omn9L2sehLpxl-14" value="" style="verticalLabelPosition=bottom;html=1;verticalAlign=top;align=center;shape=mxgraph.floorplan.wallU;fillColor=strokeColor;rotation=-90;" vertex="1" parent="1">
          <mxGeometry x="-155.6" y="565.75" width="714.37" height="321.15" as="geometry" />
        </mxCell>
        <mxCell id="o3LGDa2omn9L2sehLpxl-15" value="" style="verticalLabelPosition=bottom;html=1;verticalAlign=top;align=center;shape=mxgraph.floorplan.wallU;fillColor=strokeColor;direction=north;" vertex="1" parent="1">
          <mxGeometry x="41" y="866" width="320" height="210" as="geometry" />
        </mxCell>
        <mxCell id="o3LGDa2omn9L2sehLpxl-16" value="" style="image;points=[];aspect=fixed;html=1;align=center;shadow=0;dashed=0;image=img/lib/allied_telesis/computer_and_terminals/Personal_Computer.svg;" vertex="1" parent="1">
          <mxGeometry x="180.82" y="962" width="60.36" height="81.8" as="geometry" />
        </mxCell>
        <mxCell id="o3LGDa2omn9L2sehLpxl-28" style="edgeStyle=orthogonalEdgeStyle;rounded=0;orthogonalLoop=1;jettySize=auto;html=1;endArrow=none;endFill=0;" edge="1" parent="1" source="o3LGDa2omn9L2sehLpxl-17" target="o3LGDa2omn9L2sehLpxl-16">
          <mxGeometry relative="1" as="geometry" />
        </mxCell>
        <mxCell id="o3LGDa2omn9L2sehLpxl-29" style="edgeStyle=orthogonalEdgeStyle;rounded=0;orthogonalLoop=1;jettySize=auto;html=1;endArrow=none;endFill=0;" edge="1" parent="1" source="o3LGDa2omn9L2sehLpxl-17" target="o3LGDa2omn9L2sehLpxl-23">
          <mxGeometry relative="1" as="geometry">
            <Array as="points">
              <mxPoint x="181" y="776" />
            </Array>
          </mxGeometry>
        </mxCell>
        <mxCell id="o3LGDa2omn9L2sehLpxl-30" style="edgeStyle=orthogonalEdgeStyle;rounded=0;orthogonalLoop=1;jettySize=auto;html=1;endArrow=none;endFill=0;" edge="1" parent="1" source="o3LGDa2omn9L2sehLpxl-17" target="o3LGDa2omn9L2sehLpxl-22">
          <mxGeometry relative="1" as="geometry">
            <Array as="points">
              <mxPoint x="231" y="772" />
            </Array>
          </mxGeometry>
        </mxCell>
        <mxCell id="o3LGDa2omn9L2sehLpxl-31" style="edgeStyle=orthogonalEdgeStyle;rounded=0;orthogonalLoop=1;jettySize=auto;html=1;endArrow=none;endFill=0;" edge="1" parent="1" source="o3LGDa2omn9L2sehLpxl-17" target="o3LGDa2omn9L2sehLpxl-24">
          <mxGeometry relative="1" as="geometry">
            <Array as="points">
              <mxPoint x="221" y="642" />
            </Array>
          </mxGeometry>
        </mxCell>
        <mxCell id="o3LGDa2omn9L2sehLpxl-32" style="edgeStyle=orthogonalEdgeStyle;rounded=0;orthogonalLoop=1;jettySize=auto;html=1;endArrow=none;endFill=0;" edge="1" parent="1" source="o3LGDa2omn9L2sehLpxl-17" target="o3LGDa2omn9L2sehLpxl-25">
          <mxGeometry relative="1" as="geometry">
            <Array as="points">
              <mxPoint x="171" y="637" />
            </Array>
          </mxGeometry>
        </mxCell>
        <mxCell id="o3LGDa2omn9L2sehLpxl-33" style="edgeStyle=orthogonalEdgeStyle;rounded=0;orthogonalLoop=1;jettySize=auto;html=1;endArrow=none;endFill=0;" edge="1" parent="1" source="o3LGDa2omn9L2sehLpxl-17" target="o3LGDa2omn9L2sehLpxl-26">
          <mxGeometry relative="1" as="geometry">
            <Array as="points">
              <mxPoint x="211" y="502" />
            </Array>
          </mxGeometry>
        </mxCell>
        <mxCell id="o3LGDa2omn9L2sehLpxl-34" style="edgeStyle=orthogonalEdgeStyle;rounded=0;orthogonalLoop=1;jettySize=auto;html=1;endArrow=none;endFill=0;" edge="1" parent="1" source="o3LGDa2omn9L2sehLpxl-17" target="o3LGDa2omn9L2sehLpxl-27">
          <mxGeometry relative="1" as="geometry">
            <Array as="points">
              <mxPoint x="191" y="497" />
            </Array>
          </mxGeometry>
        </mxCell>
        <mxCell id="o3LGDa2omn9L2sehLpxl-17" value="" style="verticalLabelPosition=bottom;html=1;verticalAlign=top;align=center;shape=mxgraph.floorplan.dresser;" vertex="1" parent="1">
          <mxGeometry x="161" y="877" width="100" height="65" as="geometry" />
        </mxCell>
        <mxCell id="o3LGDa2omn9L2sehLpxl-18" value="" style="shape=image;html=1;verticalAlign=top;verticalLabelPosition=bottom;labelBackgroundColor=#ffffff;imageAspect=0;aspect=fixed;image=https://cdn1.iconfinder.com/data/icons/bootstrap-vol-3/16/outlet-128.png" vertex="1" parent="1">
          <mxGeometry x="101" y="913" width="38" height="38" as="geometry" />
        </mxCell>
        <mxCell id="o3LGDa2omn9L2sehLpxl-19" value="" style="shape=image;html=1;verticalAlign=top;verticalLabelPosition=bottom;labelBackgroundColor=#ffffff;imageAspect=0;aspect=fixed;image=https://cdn1.iconfinder.com/data/icons/bootstrap-vol-3/16/outlet-128.png" vertex="1" parent="1">
          <mxGeometry x="101" y="986" width="38" height="38" as="geometry" />
        </mxCell>
        <mxCell id="o3LGDa2omn9L2sehLpxl-20" value="" style="verticalLabelPosition=bottom;html=1;verticalAlign=top;align=center;shape=mxgraph.floorplan.doorRight;aspect=fixed;" vertex="1" parent="1">
          <mxGeometry x="281" y="877" width="80" height="85" as="geometry" />
        </mxCell>
        <mxCell id="o3LGDa2omn9L2sehLpxl-21" value="" style="verticalLabelPosition=bottom;html=1;verticalAlign=top;align=center;shape=mxgraph.floorplan.wall;fillColor=strokeColor;direction=south;" vertex="1" parent="1">
          <mxGeometry x="351" y="962" width="10" height="104" as="geometry" />
        </mxCell>
        <mxCell id="o3LGDa2omn9L2sehLpxl-22" value="" style="image;points=[];aspect=fixed;html=1;align=center;shadow=0;dashed=0;image=img/lib/allied_telesis/computer_and_terminals/Personal_Computer.svg;" vertex="1" parent="1">
          <mxGeometry x="242.18" y="731" width="60.36" height="81.8" as="geometry" />
        </mxCell>
        <mxCell id="o3LGDa2omn9L2sehLpxl-23" value="" style="image;points=[];aspect=fixed;html=1;align=center;shadow=0;dashed=0;image=img/lib/allied_telesis/computer_and_terminals/Personal_Computer.svg;" vertex="1" parent="1">
          <mxGeometry x="101" y="726" width="60.36" height="81.8" as="geometry" />
        </mxCell>
        <mxCell id="o3LGDa2omn9L2sehLpxl-24" value="" style="image;points=[];aspect=fixed;html=1;align=center;shadow=0;dashed=0;image=img/lib/allied_telesis/computer_and_terminals/Personal_Computer.svg;" vertex="1" parent="1">
          <mxGeometry x="242.18" y="601" width="60.36" height="81.8" as="geometry" />
        </mxCell>
        <mxCell id="o3LGDa2omn9L2sehLpxl-25" value="" style="image;points=[];aspect=fixed;html=1;align=center;shadow=0;dashed=0;image=img/lib/allied_telesis/computer_and_terminals/Personal_Computer.svg;" vertex="1" parent="1">
          <mxGeometry x="101" y="596" width="60.36" height="81.8" as="geometry" />
        </mxCell>
        <mxCell id="o3LGDa2omn9L2sehLpxl-26" value="" style="image;points=[];aspect=fixed;html=1;align=center;shadow=0;dashed=0;image=img/lib/allied_telesis/computer_and_terminals/Personal_Computer.svg;" vertex="1" parent="1">
          <mxGeometry x="242.18" y="461" width="60.36" height="81.8" as="geometry" />
        </mxCell>
        <mxCell id="o3LGDa2omn9L2sehLpxl-27" value="" style="image;points=[];aspect=fixed;html=1;align=center;shadow=0;dashed=0;image=img/lib/allied_telesis/computer_and_terminals/Personal_Computer.svg;" vertex="1" parent="1">
          <mxGeometry x="101" y="456" width="60.36" height="81.8" as="geometry" />
        </mxCell>
        <mxCell id="o3LGDa2omn9L2sehLpxl-35" value="" style="rounded=0;whiteSpace=wrap;html=1;" vertex="1" parent="1">
          <mxGeometry x="61" y="386" width="30" height="20" as="geometry" />
        </mxCell>
        <mxCell id="o3LGDa2omn9L2sehLpxl-96" style="edgeStyle=orthogonalEdgeStyle;rounded=0;orthogonalLoop=1;jettySize=auto;html=1;dashed=1;dashPattern=12 12;endArrow=none;endFill=0;" edge="1" parent="1" source="o3LGDa2omn9L2sehLpxl-36" target="o3LGDa2omn9L2sehLpxl-17">
          <mxGeometry relative="1" as="geometry">
            <Array as="points">
              <mxPoint x="61" y="396" />
              <mxPoint x="61" y="886" />
            </Array>
          </mxGeometry>
        </mxCell>
        <mxCell id="o3LGDa2omn9L2sehLpxl-98" style="edgeStyle=orthogonalEdgeStyle;rounded=0;orthogonalLoop=1;jettySize=auto;html=1;dashed=1;dashPattern=12 12;endArrow=none;endFill=0;" edge="1" parent="1" source="o3LGDa2omn9L2sehLpxl-36" target="o3LGDa2omn9L2sehLpxl-68">
          <mxGeometry relative="1" as="geometry">
            <Array as="points">
              <mxPoint x="76" y="1056" />
              <mxPoint x="1230" y="1056" />
              <mxPoint x="1230" y="919" />
            </Array>
          </mxGeometry>
        </mxCell>
        <mxCell id="o3LGDa2omn9L2sehLpxl-36" value="" style="ellipse;whiteSpace=wrap;html=1;aspect=fixed;fillColor=#3333FF;strokeColor=#6c8ebf;" vertex="1" parent="1">
          <mxGeometry x="66" y="386" width="20" height="20" as="geometry" />
        </mxCell>
        <mxCell id="o3LGDa2omn9L2sehLpxl-37" value="" style="verticalLabelPosition=bottom;html=1;verticalAlign=top;align=center;shape=mxgraph.floorplan.wallU;fillColor=strokeColor;rotation=-90;direction=west;" vertex="1" parent="1">
          <mxGeometry x="271" y="651.2" width="714.37" height="150.25" as="geometry" />
        </mxCell>
        <mxCell id="o3LGDa2omn9L2sehLpxl-38" value="" style="verticalLabelPosition=bottom;html=1;verticalAlign=top;align=center;shape=mxgraph.floorplan.wall;fillColor=strokeColor;" vertex="1" parent="1">
          <mxGeometry x="361" y="1068.8" width="200" height="20" as="geometry" />
        </mxCell>
        <mxCell id="o3LGDa2omn9L2sehLpxl-39" value="" style="verticalLabelPosition=bottom;html=1;verticalAlign=top;align=center;shape=mxgraph.floorplan.doorUneven;dx=0.5;" vertex="1" parent="1">
          <mxGeometry x="361" y="376" width="190" height="85" as="geometry" />
        </mxCell>
        <mxCell id="o3LGDa2omn9L2sehLpxl-66" value="" style="verticalLabelPosition=bottom;html=1;verticalAlign=top;align=center;shape=mxgraph.floorplan.wallU;fillColor=strokeColor;rotation=-90;" vertex="1" parent="1">
          <mxGeometry x="410.54999999999995" y="656.2" width="714.37" height="140.25" as="geometry" />
        </mxCell>
        <mxCell id="o3LGDa2omn9L2sehLpxl-67" value="" style="verticalLabelPosition=bottom;html=1;verticalAlign=top;align=center;shape=mxgraph.floorplan.wallU;fillColor=strokeColor;direction=south;" vertex="1" parent="1">
          <mxGeometry x="983" y="864" width="300" height="220" as="geometry" />
        </mxCell>
        <mxCell id="o3LGDa2omn9L2sehLpxl-86" style="edgeStyle=orthogonalEdgeStyle;rounded=0;orthogonalLoop=1;jettySize=auto;html=1;endArrow=none;endFill=0;" edge="1" parent="1" source="o3LGDa2omn9L2sehLpxl-68" target="o3LGDa2omn9L2sehLpxl-79">
          <mxGeometry relative="1" as="geometry">
            <Array as="points">
              <mxPoint x="1181" y="792" />
            </Array>
          </mxGeometry>
        </mxCell>
        <mxCell id="o3LGDa2omn9L2sehLpxl-87" style="edgeStyle=orthogonalEdgeStyle;rounded=0;orthogonalLoop=1;jettySize=auto;html=1;endArrow=none;endFill=0;" edge="1" parent="1" source="o3LGDa2omn9L2sehLpxl-68" target="o3LGDa2omn9L2sehLpxl-78">
          <mxGeometry relative="1" as="geometry">
            <Array as="points">
              <mxPoint x="1121" y="787" />
            </Array>
          </mxGeometry>
        </mxCell>
        <mxCell id="o3LGDa2omn9L2sehLpxl-88" style="edgeStyle=orthogonalEdgeStyle;rounded=0;orthogonalLoop=1;jettySize=auto;html=1;endArrow=none;endFill=0;" edge="1" parent="1" source="o3LGDa2omn9L2sehLpxl-68" target="o3LGDa2omn9L2sehLpxl-80">
          <mxGeometry relative="1" as="geometry">
            <Array as="points">
              <mxPoint x="1171" y="662" />
            </Array>
          </mxGeometry>
        </mxCell>
        <mxCell id="o3LGDa2omn9L2sehLpxl-89" style="edgeStyle=orthogonalEdgeStyle;rounded=0;orthogonalLoop=1;jettySize=auto;html=1;endArrow=none;endFill=0;" edge="1" parent="1" source="o3LGDa2omn9L2sehLpxl-68" target="o3LGDa2omn9L2sehLpxl-77">
          <mxGeometry relative="1" as="geometry">
            <Array as="points">
              <mxPoint x="1131" y="657" />
            </Array>
          </mxGeometry>
        </mxCell>
        <mxCell id="o3LGDa2omn9L2sehLpxl-90" style="edgeStyle=orthogonalEdgeStyle;rounded=0;orthogonalLoop=1;jettySize=auto;html=1;endArrow=none;endFill=0;" edge="1" parent="1" source="o3LGDa2omn9L2sehLpxl-68" target="o3LGDa2omn9L2sehLpxl-81">
          <mxGeometry relative="1" as="geometry">
            <Array as="points">
              <mxPoint x="1146" y="522" />
            </Array>
          </mxGeometry>
        </mxCell>
        <mxCell id="o3LGDa2omn9L2sehLpxl-91" style="edgeStyle=orthogonalEdgeStyle;rounded=0;orthogonalLoop=1;jettySize=auto;html=1;endArrow=none;endFill=0;" edge="1" parent="1" source="o3LGDa2omn9L2sehLpxl-68" target="o3LGDa2omn9L2sehLpxl-76">
          <mxGeometry relative="1" as="geometry">
            <Array as="points">
              <mxPoint x="1111" y="517" />
            </Array>
          </mxGeometry>
        </mxCell>
        <mxCell id="o3LGDa2omn9L2sehLpxl-120" style="rounded=0;orthogonalLoop=1;jettySize=auto;html=1;endArrow=none;endFill=0;" edge="1" parent="1" source="o3LGDa2omn9L2sehLpxl-68" target="o3LGDa2omn9L2sehLpxl-84">
          <mxGeometry relative="1" as="geometry" />
        </mxCell>
        <mxCell id="o3LGDa2omn9L2sehLpxl-68" value="" style="verticalLabelPosition=bottom;html=1;verticalAlign=top;align=center;shape=mxgraph.floorplan.dresser;" vertex="1" parent="1">
          <mxGeometry x="1096" y="886" width="100" height="65" as="geometry" />
        </mxCell>
        <mxCell id="o3LGDa2omn9L2sehLpxl-69" value="" style="shape=image;html=1;verticalAlign=top;verticalLabelPosition=bottom;labelBackgroundColor=#ffffff;imageAspect=0;aspect=fixed;image=https://cdn1.iconfinder.com/data/icons/bootstrap-vol-3/16/outlet-128.png" vertex="1" parent="1">
          <mxGeometry x="1231" y="900.5" width="38" height="38" as="geometry" />
        </mxCell>
        <mxCell id="o3LGDa2omn9L2sehLpxl-72" value="" style="shape=image;html=1;verticalAlign=top;verticalLabelPosition=bottom;labelBackgroundColor=#ffffff;imageAspect=0;aspect=fixed;image=https://cdn1.iconfinder.com/data/icons/bootstrap-vol-3/16/outlet-128.png" vertex="1" parent="1">
          <mxGeometry x="1231" y="1007.9" width="38" height="38" as="geometry" />
        </mxCell>
        <mxCell id="o3LGDa2omn9L2sehLpxl-74" value="" style="verticalLabelPosition=bottom;html=1;verticalAlign=top;align=center;shape=mxgraph.floorplan.wallU;fillColor=strokeColor;rotation=-90;direction=west;" vertex="1" parent="1">
          <mxGeometry x="797.1" y="597.3" width="714.37" height="258.05" as="geometry" />
        </mxCell>
        <mxCell id="o3LGDa2omn9L2sehLpxl-75" value="" style="verticalLabelPosition=bottom;html=1;verticalAlign=top;align=center;shape=mxgraph.floorplan.doorUneven;dx=0.5;" vertex="1" parent="1">
          <mxGeometry x="838" y="376" width="190" height="85" as="geometry" />
        </mxCell>
        <mxCell id="o3LGDa2omn9L2sehLpxl-76" value="" style="image;points=[];aspect=fixed;html=1;align=center;shadow=0;dashed=0;image=img/lib/allied_telesis/computer_and_terminals/Personal_Computer.svg;" vertex="1" parent="1">
          <mxGeometry x="1045.23" y="476" width="60.36" height="81.8" as="geometry" />
        </mxCell>
        <mxCell id="o3LGDa2omn9L2sehLpxl-77" value="" style="image;points=[];aspect=fixed;html=1;align=center;shadow=0;dashed=0;image=img/lib/allied_telesis/computer_and_terminals/Personal_Computer.svg;" vertex="1" parent="1">
          <mxGeometry x="1045.23" y="616" width="60.36" height="81.8" as="geometry" />
        </mxCell>
        <mxCell id="o3LGDa2omn9L2sehLpxl-78" value="" style="image;points=[];aspect=fixed;html=1;align=center;shadow=0;dashed=0;image=img/lib/allied_telesis/computer_and_terminals/Personal_Computer.svg;" vertex="1" parent="1">
          <mxGeometry x="1045.23" y="746" width="60.36" height="81.8" as="geometry" />
        </mxCell>
        <mxCell id="o3LGDa2omn9L2sehLpxl-79" value="" style="image;points=[];aspect=fixed;html=1;align=center;shadow=0;dashed=0;image=img/lib/allied_telesis/computer_and_terminals/Personal_Computer.svg;" vertex="1" parent="1">
          <mxGeometry x="1186.41" y="751" width="60.36" height="81.8" as="geometry" />
        </mxCell>
        <mxCell id="o3LGDa2omn9L2sehLpxl-80" value="" style="image;points=[];aspect=fixed;html=1;align=center;shadow=0;dashed=0;image=img/lib/allied_telesis/computer_and_terminals/Personal_Computer.svg;" vertex="1" parent="1">
          <mxGeometry x="1186.41" y="621" width="60.36" height="81.8" as="geometry" />
        </mxCell>
        <mxCell id="o3LGDa2omn9L2sehLpxl-81" value="" style="image;points=[];aspect=fixed;html=1;align=center;shadow=0;dashed=0;image=img/lib/allied_telesis/computer_and_terminals/Personal_Computer.svg;" vertex="1" parent="1">
          <mxGeometry x="1186.41" y="481" width="60.36" height="81.8" as="geometry" />
        </mxCell>
        <mxCell id="o3LGDa2omn9L2sehLpxl-84" value="" style="image;points=[];aspect=fixed;html=1;align=center;shadow=0;dashed=0;image=img/lib/allied_telesis/computer_and_terminals/Personal_Computer.svg;" vertex="1" parent="1">
          <mxGeometry x="1115.82" y="964.5" width="60.36" height="81.8" as="geometry" />
        </mxCell>
        <mxCell id="o3LGDa2omn9L2sehLpxl-95" value="" style="verticalLabelPosition=bottom;html=1;verticalAlign=top;align=center;shape=mxgraph.floorplan.wall;fillColor=strokeColor;" vertex="1" parent="1">
          <mxGeometry x="838" y="1074" width="163" height="10" as="geometry" />
        </mxCell>
        <mxCell id="o3LGDa2omn9L2sehLpxl-100" value="PHÒNG KẾT TOÁN" style="text;html=1;align=center;verticalAlign=middle;resizable=0;points=[];autosize=1;strokeColor=none;fillColor=none;fontSize=26;" vertex="1" parent="1">
          <mxGeometry x="411" y="674.8" width="250" height="40" as="geometry" />
        </mxCell>
        <mxCell id="o3LGDa2omn9L2sehLpxl-101" value="PHÒNG TÍN DỤNG" style="text;html=1;align=center;verticalAlign=middle;resizable=0;points=[];autosize=1;strokeColor=none;fillColor=none;fontSize=26;" vertex="1" parent="1">
          <mxGeometry x="737.1" y="675.8" width="250" height="40" as="geometry" />
        </mxCell>
        <mxCell id="o3LGDa2omn9L2sehLpxl-102" value="" style="verticalLabelPosition=bottom;html=1;verticalAlign=top;align=center;shape=mxgraph.floorplan.doorLeft;aspect=fixed;direction=south;" vertex="1" parent="1">
          <mxGeometry x="226" y="236" width="85" height="80" as="geometry" />
        </mxCell>
        <mxCell id="o3LGDa2omn9L2sehLpxl-103" value="" style="verticalLabelPosition=bottom;html=1;verticalAlign=top;align=center;shape=mxgraph.floorplan.wallU;fillColor=strokeColor;direction=north;" vertex="1" parent="1">
          <mxGeometry x="41" y="79" width="270" height="300" as="geometry" />
        </mxCell>
        <mxCell id="o3LGDa2omn9L2sehLpxl-104" value="" style="verticalLabelPosition=bottom;html=1;verticalAlign=top;align=center;shape=mxgraph.floorplan.doorLeft;aspect=fixed;direction=south;flipH=0;flipV=1;" vertex="1" parent="1">
          <mxGeometry x="226" y="146" width="85" height="80" as="geometry" />
        </mxCell>
        <mxCell id="o3LGDa2omn9L2sehLpxl-106" value="" style="verticalLabelPosition=bottom;html=1;verticalAlign=top;align=center;shape=mxgraph.floorplan.wall;fillColor=strokeColor;direction=south;" vertex="1" parent="1">
          <mxGeometry x="301.54" y="316" width="10" height="63" as="geometry" />
        </mxCell>
        <mxCell id="o3LGDa2omn9L2sehLpxl-107" value="" style="verticalLabelPosition=bottom;html=1;verticalAlign=top;align=center;shape=mxgraph.floorplan.wall;fillColor=strokeColor;direction=south;" vertex="1" parent="1">
          <mxGeometry x="300.54" y="82" width="10" height="63" as="geometry" />
        </mxCell>
        <mxCell id="o3LGDa2omn9L2sehLpxl-108" value="WC" style="text;html=1;align=center;verticalAlign=middle;resizable=0;points=[];autosize=1;strokeColor=none;fillColor=none;fontSize=26;" vertex="1" parent="1">
          <mxGeometry x="116" y="139" width="70" height="40" as="geometry" />
        </mxCell>
        <mxCell id="o3LGDa2omn9L2sehLpxl-109" value="WC" style="text;html=1;align=center;verticalAlign=middle;resizable=0;points=[];autosize=1;strokeColor=none;fillColor=none;fontSize=26;" vertex="1" parent="1">
          <mxGeometry x="116" y="281" width="70" height="40" as="geometry" />
        </mxCell>
        <mxCell id="o3LGDa2omn9L2sehLpxl-110" value="" style="verticalLabelPosition=bottom;html=1;verticalAlign=top;align=center;shape=mxgraph.floorplan.wallU;fillColor=strokeColor;direction=south;" vertex="1" parent="1">
          <mxGeometry x="1032" y="79" width="252" height="300" as="geometry" />
        </mxCell>
        <mxCell id="o3LGDa2omn9L2sehLpxl-111" value="" style="verticalLabelPosition=bottom;html=1;verticalAlign=top;align=center;shape=mxgraph.floorplan.wall;fillColor=strokeColor;" vertex="1" parent="1">
          <mxGeometry x="991" y="224" width="292" height="10" as="geometry" />
        </mxCell>
        <mxCell id="o3LGDa2omn9L2sehLpxl-113" value="" style="endArrow=classic;html=1;rounded=0;" edge="1" parent="1">
          <mxGeometry width="50" height="50" relative="1" as="geometry">
            <mxPoint x="1187.1" y="155.5" as="sourcePoint" />
            <mxPoint x="1181" y="316" as="targetPoint" />
            <Array as="points">
              <mxPoint x="941" y="156" />
              <mxPoint x="941" y="316" />
            </Array>
          </mxGeometry>
        </mxCell>
        <mxCell id="o3LGDa2omn9L2sehLpxl-115" value="" style="verticalLabelPosition=bottom;html=1;verticalAlign=top;align=center;shape=mxgraph.floorplan.doorRight;aspect=fixed;direction=east;flipV=0;flipH=1;" vertex="1" parent="1">
          <mxGeometry x="983" y="874.5" width="84.71" height="90" as="geometry" />
        </mxCell>
        <mxCell id="o3LGDa2omn9L2sehLpxl-116" value="" style="verticalLabelPosition=bottom;html=1;verticalAlign=top;align=center;shape=mxgraph.floorplan.wall;fillColor=strokeColor;direction=south;" vertex="1" parent="1">
          <mxGeometry x="983" y="964.5" width="10" height="114" as="geometry" />
        </mxCell>
      </root>
    </mxGraphModel>
  </diagram>
</mxfile>
